<?xml version="1.0" encoding="utf-8"?>
<!-- Uploaded to: SVG Repo, www.svgrepo.com, Generator: SVG Repo Mixer Tools -->
<svg width="800px" height="800px" viewBox="0 0 64 64" fill="none" xmlns="http://www.w3.org/2000/svg">
<g clip-path="url(#clip0_14_1937)">
<path d="M39.432 18.477L23.662 28.314" stroke="#000000" stroke-width="4" stroke-linecap="round" stroke-linejoin="round"/>
<path d="M39.445 45.458L23.649 35.569" stroke="#000000" stroke-width="4" stroke-linecap="round" stroke-linejoin="round"/>
<path d="M17.849 38.784C21.6316 38.784 24.698 35.7176 24.698 31.935C24.698 28.1524 21.6316 25.086 17.849 25.086C14.0664 25.086 11 28.1524 11 31.935C11 35.7176 14.0664 38.784 17.849 38.784Z" stroke="#426AB2" stroke-width="4" stroke-linecap="round" stroke-linejoin="round"/>
<path d="M45.245 21.698C49.0276 21.698 52.094 18.6316 52.094 14.849C52.094 11.0664 49.0276 8 45.245 8C41.4624 8 38.396 11.0664 38.396 14.849C38.396 18.6316 41.4624 21.698 45.245 21.698Z" stroke="#426AB2" stroke-width="4" stroke-linecap="round" stroke-linejoin="round"/>
<path d="M45.245 55.943C49.0276 55.943 52.094 52.8766 52.094 49.094C52.094 45.3114 49.0276 42.245 45.245 42.245C41.4624 42.245 38.396 45.3114 38.396 49.094C38.396 52.8766 41.4624 55.943 45.245 55.943Z" stroke="#426AB2" stroke-width="4" stroke-linecap="round" stroke-linejoin="round"/>
</g>
<defs>
<clipPath id="clip0_14_1937">
<rect width="45.094" height="51.943" fill="white" transform="translate(9 6)"/>
</clipPath>
</defs>
</svg>